PathFileType	4	(X/Y/Z)	C:\Users\Basilio\Documents\Thesis Gigler\squatting_fais\c3dfiles\039\SLS_pre_front1\markers_experimental.trc
DataRate	CameraRate	NumFrames	NumMarkers	Units	OrigDataRate	OrigDataStartFrame	OrigNumFrames
200.000000	200.000000	4	63	mm	200.000000	702	1405
Frame#	Time	FHD			RBHD			C7			T10			LSHO			LUUPA			LMUPA			LDUPA			LLEP			LMEP			LRAD			LUL			LRFIN			RSHO			RUPA1			RMUPA			RDUPA			RLEP			RMEP			RRAD			RUL			RUFIN			LASI			RASI			USACR			LSACR			RSACR			LTHI1			LTHI2			LTHI3			LTHI4			LLFC			LMFC			LTIB1			LTIB2			LTIB3			LTIB4			LLMAL			LMMAL			LHEE			LMT1			LMT2			LMT5			RTHI			RTHI2			RTHI3			RTHI4			RLFC			RMFC			RTIB1			RTIB2			RTIB3			RTIB4			RLMAL			RMMAL			RHEE			RMT1			RMT2			RMT5			LBHD			CLAV			*61			*62			
		X1	Y1	Z1	X2	Y2	Z2	X3	Y3	Z3	X4	Y4	Z4	X5	Y5	Z5	X6	Y6	Z6	X7	Y7	Z7	X8	Y8	Z8	X9	Y9	Z9	X10	Y10	Z10	X11	Y11	Z11	X12	Y12	Z12	X13	Y13	Z13	X14	Y14	Z14	X15	Y15	Z15	X16	Y16	Z16	X17	Y17	Z17	X18	Y18	Z18	X19	Y19	Z19	X20	Y20	Z20	X21	Y21	Z21	X22	Y22	Z22	X23	Y23	Z23	X24	Y24	Z24	X25	Y25	Z25	X26	Y26	Z26	X27	Y27	Z27	X28	Y28	Z28	X29	Y29	Z29	X30	Y30	Z30	X31	Y31	Z31	X32	Y32	Z32	X33	Y33	Z33	X34	Y34	Z34	X35	Y35	Z35	X36	Y36	Z36	X37	Y37	Z37	X38	Y38	Z38	X39	Y39	Z39	X40	Y40	Z40	X41	Y41	Z41	X42	Y42	Z42	X43	Y43	Z43	X44	Y44	Z44	X45	Y45	Z45	X46	Y46	Z46	X47	Y47	Z47	X48	Y48	Z48	X49	Y49	Z49	X50	Y50	Z50	X51	Y51	Z51	X52	Y52	Z52	X53	Y53	Z53	X54	Y54	Z54	X55	Y55	Z55	X56	Y56	Z56	X57	Y57	Z57	X58	Y58	Z58	X59	Y59	Z59	X60	Y60	Z60	X61	Y61	Z61	X62	Y62	Z62	X63	Y63	Z63	

703	3.51	-240.4505004882813	1468.898803710938	-620.8643798828126	-370.8785095214844	1444.7587890625	-601.4287109375001	-445.9165649414064	1294.016235351563	-686.3414306640626	-559.9097290039064	1022.194946289063	-732.3019409179689	-367.3113098144532	1299.16357421875	-848.4830322265627	-214.2933349609376	1267.622192382813	-970.7798461914065	-187.7662658691407	1295.695922851563	-938.7063598632815	-144.9759063720703	1275.502563476563	-975.0936279296877	-77.57917785644533	1282.088012695313	-973.6202392578127	-72.95424652099611	1208.912475585938	-948.468444824219	206.3011322021485	1298.847534179688	-903.1990966796877	202.9940948486329	1313.371826171875	-978.449157714844	286.6814270019532	1331.302856445313	-897.1551513671877	-336.6360473632813	1280.025634765625	-534.1400756835939	-183.2605133056641	1211.121337890625	-431.296112060547	-155.455795288086	1245.918823242188	-455.7117004394532	-114.3059921264649	1208.887939453125	-430.9325561523439	-51.04593658447267	1223.717529296875	-439.237274169922	-43.94891738891602	1158.031005859375	-480.4068298339845	238.1849670410157	1272.218627929688	-514.3784179687501	237.1451568603516	1263.38232421875	-437.997283935547	324.5430603027344	1305.240966796875	-505.4158630371095	-441.0359497070314	844.326110839844	-858.8184204101565	-446.7779846191407	830.996520996094	-631.9837036132814	-622.2581176757814	878.5872802734377	-744.2146606445314	-626.2552490234376	847.1945800781252	-773.520446777344	-630.3074340820314	845.2121582031252	-715.3625488281251	-309.1338500976563	659.9691772460939	-940.6795654296877	-224.0599975585938	652.7608642578126	-936.891784667969	-204.4599761962891	693.9122924804689	-923.1890258789065	-191.6062469482422	600.9297485351564	-928.3917236328127	-85.46322631835939	544.1592407226564	-926.1990966796877	-48.04106903076173	547.6229248046876	-812.3072509765627	70.72445678710939	504.830047607422	-905.4121704101565	64.77259826660158	430.5223999023439	-950.8725585937502	94.59400177001955	460.3555908203126	-934.2820434570315	159.0760345458985	412.1021423339845	-899.1007080078127	257.5321044921876	268.2143859863282	-940.2212524414065	274.6573181152344	273.8577880859376	-855.5688476562502	261.0878906250001	177.851547241211	-903.3193359375002	413.8327636718751	354.5661010742188	-889.4158935546877	403.6900329589845	355.9723815917969	-929.640319824219	385.9712524414064	313.8533020019532	-985.2691650390627	-327.1965026855469	619.5575561523439	-568.3150024414064	-260.0916748046876	615.2005004882814	-564.9327392578126	-240.7165527343751	641.8281250000001	-570.1096191406251	-217.0502624511719	542.2873535156251	-573.3858032226564	-162.4635314941407	448.1653137207032	-612.7030029296876	-134.2285614013672	466.4523010253907	-718.0279541015626	-202.3094177246094	268.2484130859376	-675.5042114257814	-307.3309631347657	244.0654296875001	-667.4459838867189	-269.1386108398438	218.8868560791016	-679.7500000000001	-275.9742126464844	176.3949127197266	-720.9718017578126	-376.4552001953126	119.8332595825196	-711.4165649414064	-345.7849731445313	143.2303771972657	-794.3544921875002	-454.5276489257814	108.6514663696289	-768.1580200195315	-231.4667968750001	54.28183364868165	-779.634948730469	-235.8675079345704	55.13842391967775	-733.2703857421876	-292.2450866699219	40.13570785522462	-682.3969116210939	-399.3932495117189	1440.724975585938	-740.3917846679689	nan	nan	nan	nan	nan	nan	nan	nan	nan	
704	3.515	-240.669662475586	1468.715942382813	-620.9281616210939	-371.1217956542969	1444.73779296875	-601.6235351562501	-446.1744079589845	1293.927856445313	-686.4019165039064	-560.1460571289064	1022.083740234375	-732.3027954101564	-367.5604248046876	1299.006469726563	-848.6158447265627	-214.5227050781251	1267.371948242188	-970.7847290039065	-187.9992218017578	1295.450561523438	-938.7126464843752	-145.2374114990235	1275.227294921875	-975.0831298828127	-77.88378143310548	1281.884033203125	-973.6992187500002	-73.27339935302736	1208.545043945313	-948.5659790039065	206.0889892578126	1298.543823242188	-903.1807861328127	202.7553863525391	1313.011596679688	-978.4228515625002	286.4063415527344	1331.009033203125	-897.063659667969	-336.8776550292969	1279.912841796875	-534.2303466796876	-183.4550933837891	1210.947509765625	-431.338592529297	-155.7345123291016	1245.8330078125	-455.7050781250001	-114.5146408081055	1208.655883789063	-430.9457092285157	-51.31566238403322	1223.446533203125	-439.2322692871095	-44.17689895629884	1157.795776367188	-480.4829406738282	238.0137329101563	1271.83447265625	-514.4984130859376	236.9016113281251	1263.033447265625	-438.107391357422	324.3184204101563	1304.839111328125	-505.5023193359376	-441.3063964843751	844.1509399414065	-858.8875732421877	-447.127410888672	830.8967895507815	-632.0614624023439	-622.6225585937501	878.4277343750002	-744.2239990234376	-626.6469726562501	847.0236816406252	-773.5960693359377	-630.6536865234376	845.0677490234377	-715.4021606445314	-309.4899902343751	659.7401733398439	-940.5647583007815	-224.4194030761719	652.3897094726564	-936.7637939453127	-204.7033081054688	693.6000366210939	-923.116394042969	-192.0521697998047	600.5781860351564	-928.2324829101565	-85.92607879638673	543.7619628906251	-926.1189575195315	-48.41113662719728	547.3073120117189	-812.1287231445315	70.29602050781251	504.5204162597657	-905.2434082031252	64.1468963623047	430.121795654297	-950.6465454101565	94.05417633056642	459.9877319335939	-934.1784667968752	158.6735229492188	411.6872863769532	-898.8860473632815	257.0181884765626	267.7682800292969	-939.8619384765627	274.0812072753907	273.6180725097657	-855.0349731445315	260.6152648925782	177.4541168212891	-902.9536132812502	413.5078430175782	354.1708679199219	-889.042419433594	403.3177490234376	355.3950500488282	-929.3073730468752	385.5476989746095	313.3847351074219	-984.8641357421877	-327.3832397460938	619.5139160156251	-568.4405517578126	-260.2970275878907	615.3119506835939	-565.0565795898439	-240.9483947753907	641.7678222656251	-570.2957763671876	-217.2289733886719	542.3839721679689	-573.5519409179689	-162.5605010986328	448.2776184082032	-612.9012451171876	-134.4751129150391	466.526336669922	-718.2515869140626	-202.3795776367188	268.3004150390626	-675.6925048828126	-307.4587097167969	244.0902557373047	-667.5226440429689	-269.2501220703126	218.8678894042969	-679.8762817382814	-275.9478149414063	175.9506988525391	-721.4315795898439	-376.4618225097657	119.8403854370117	-711.4390869140626	-345.8567504882813	143.1362457275391	-794.4292602539065	-454.5194702148439	108.6267547607422	-768.1736450195315	-231.4507904052735	54.32822418212892	-779.6901855468752	-235.8365631103516	55.16038513183595	-733.3643188476564	-292.2577209472657	40.1839714050293	-682.4076538085939	-399.5819702148439	1440.581665039063	-740.6558837890626	nan	nan	nan	nan	nan	nan	nan	nan	nan	
705	3.52	-240.9267272949219	1468.612670898438	-621.0771484375001	-371.2966918945313	1444.6953125	-601.7818603515626	-446.4871826171876	1293.843383789063	-686.5482788085939	-560.4777221679689	1022.029357910156	-732.3748168945314	-367.8265991210938	1298.828491210938	-848.7037353515627	-214.7867279052735	1267.090698242188	-970.8920898437502	-188.2817993164063	1295.298828125	-938.7565917968752	-145.4708862304688	1275.048828125	-975.0664672851565	-78.07026672363283	1281.71435546875	-973.716247558594	-73.51069641113283	1208.139404296875	-948.6447753906252	205.8757781982422	1298.239501953125	-903.1494140625002	202.2402496337891	1312.458984375	-978.0718994140627	286.1958007812501	1330.650268554688	-896.9393310546877	-337.0649108886719	1279.786376953125	-534.2842407226564	-183.6349182128907	1210.848999023438	-431.433563232422	-156.0416259765625	1245.693603515625	-455.7583618164064	-114.8293609619141	1208.516723632813	-431.0302734375001	-51.5437355041504	1223.164184570313	-439.231903076172	-44.45675277709962	1157.491943359375	-480.4776611328126	237.8835754394532	1271.447143554688	-514.7002563476564	236.572982788086	1262.804321289063	-438.1613159179689	324.0214233398438	1304.48095703125	-505.6653442382814	-441.6407470703126	844.0715942382815	-859.000183105469	-447.4863281250001	830.8074340820315	-632.0902099609376	-622.6461181640626	877.8616333007815	-744.3590087890626	-626.9468994140626	846.907409667969	-773.6228637695315	-631.0301513671876	844.9782714843752	-715.4657592773439	-309.9087829589844	659.4114379882814	-940.5004882812502	-224.839828491211	652.0109252929689	-936.6665039062502	-205.0179748535157	693.2927856445314	-923.1875000000002	-192.4302520751954	600.2606811523439	-928.059997558594	-86.32484436035158	543.3612060546876	-925.9058837890627	-48.73802566528322	547.0709228515626	-811.9803466796877	69.94274902343751	504.1771850585939	-905.119567871094	63.6151466369629	429.7584533691407	-949.9367675781252	93.76360321044923	459.5573120117189	-933.9332275390627	158.2535095214844	411.4160461425782	-898.7168579101565	256.6726989746094	267.3382568359376	-939.5144653320315	273.7579956054688	273.1189270019532	-854.6722412109377	260.2182617187501	177.0964965820313	-902.462097167969	413.0881347656251	353.7828979492188	-888.7224731445315	403.4851074218751	354.4394531250001	-928.928894042969	384.8812561035157	312.7741699218751	-984.353210449219	-327.5510253906251	619.4742431640626	-568.5662841796876	-260.4848022460938	615.4780883789064	-565.2366333007814	-241.2464141845704	641.8618164062501	-570.4430541992189	-217.3671875000001	542.4892578125001	-573.7404174804689	-162.3427276611328	448.777313232422	-612.5476684570314	-134.7698059082032	466.5307617187501	-718.6179809570314	-202.4554290771485	268.3783264160157	-675.7566528320314	-307.5060119628907	244.1041107177735	-667.6174316406251	-269.3100891113282	218.7990112304688	-680.1097412109376	-276.0302734375001	176.0208587646485	-721.5791625976564	-376.4327392578126	119.7173385620117	-711.4815063476564	-345.8030090332032	143.077377319336	-794.5075683593752	-454.5384216308595	108.569091796875	-768.1921997070315	-231.4703216552735	54.31836318969728	-779.6633300781252	-235.8697814941407	55.20176315307619	-733.3453979492189	-292.2513732910157	40.20939254760743	-682.4090576171876	-399.751190185547	1440.497802734375	-740.7396240234376	nan	nan	nan	nan	nan	nan	nan	nan	nan	
706	3.525	-241.2461242675782	1468.47509765625	-621.3998413085939	-371.6090698242188	1444.7451171875	-601.9219970703126	-446.7317810058595	1293.734619140625	-686.6885986328126	-560.7285766601564	1021.930603027344	-732.3839111328126	-368.1338500976563	1298.67333984375	-848.845397949219	-215.0191040039063	1266.8828125	-970.9619750976565	-188.5295867919922	1295.02294921875	-938.764587402344	-145.8087463378907	1274.860961914063	-975.0633544921877	-78.26763916015626	1281.548950195313	-973.7725219726565	-73.7859573364258	1207.850463867188	-948.6436767578127	205.5433197021485	1297.937133789063	-903.0388793945315	202.2961578369141	1312.378051757813	-978.2315673828127	285.8966674804688	1330.456665039063	-896.8474121093752	-337.2913208007813	1279.682373046875	-534.3840332031251	-183.9019012451172	1210.730224609375	-431.6015930175782	-156.2490386962891	1245.656005859375	-455.8031311035157	-115.0570373535157	1208.370971679688	-431.124725341797	-51.70755004882814	1223.027709960938	-439.3734130859376	-44.6890983581543	1157.275024414063	-480.5738220214845	237.6797943115235	1271.15380859375	-514.8789062500001	236.4258422851563	1262.508178710938	-438.2960205078126	323.8319091796876	1304.170043945313	-505.8893432617189	-441.944549560547	843.9565429687502	-859.0412597656252	-447.8696899414064	830.660827636719	-632.0682373046876	-622.8591918945314	877.5627441406252	-744.3621215820314	-627.2297363281251	846.758239746094	-773.5757446289065	-631.1935424804689	844.7585449218752	-715.4901733398439	-310.2827758789063	659.1530151367189	-940.3831787109377	-225.2589416503907	651.5980834960939	-936.573669433594	-205.3055267333985	692.8440551757814	-923.174743652344	-192.7882537841797	600.0172119140626	-927.933776855469	-86.67700958251955	542.9112548828126	-925.7886352539065	-48.96417617797853	546.8635253906251	-811.853210449219	69.5470428466797	503.7887573242189	-904.9285278320315	63.38246154785158	429.4227905273439	-950.1757812500002	93.17100524902345	459.1379394531251	-933.5325927734377	157.916748046875	411.0248107910157	-898.483093261719	256.2404174804688	266.9794311523438	-939.0161743164065	273.4265136718751	272.7718505859376	-854.2342529296877	259.8672180175782	176.7810363769532	-901.9550781250002	412.5630798339845	353.5124206542969	-888.5469360351565	403.1060180664064	354.1439819335938	-928.6768188476565	384.4445800781251	312.3429565429688	-983.9442138671877	-327.6688842773438	619.5098876953126	-568.7109985351564	-261.0333557128907	615.1270141601564	-565.6477050781251	-241.4905853271485	641.9367065429689	-570.5985717773439	-217.4878845214844	542.6084594726564	-573.9533081054689	-162.4678802490235	448.829071044922	-612.8333129882814	-134.960922241211	466.6365051269532	-718.9151611328126	-202.5072021484376	268.4413452148438	-675.9370117187501	-307.5682678222657	244.1508941650391	-667.7540283203126	-269.4480895996094	218.6994018554688	-680.4242553710939	-276.1023254394532	175.9863586425782	-721.6189575195314	-376.4228515625001	119.6978378295899	-711.5020141601564	-345.9138488769532	143.0536804199219	-794.521911621094	-454.5422363281251	108.5447158813477	-768.2410888671877	-231.4169921875001	54.2694664001465	-779.661560058594	-235.8533172607422	55.19618988037111	-733.3695068359376	-292.2366027832032	40.21678543090821	-682.4179687500001	-400.205780029297	1440.447143554688	-740.7237548828126	nan	nan	nan	nan	nan	nan	nan	nan	nan	
